<svg width="120" height="29" viewBox="0 0 120 29" fill="none" xmlns="http://www.w3.org/2000/svg">
<g clip-path="url(#clip0_6104_7948)">
<path d="M32.798 24.8721C31.9254 26.181 30.4579 27.2123 28.9507 27.3312C27.4038 27.4502 26.4123 26.895 25.381 25.3084C25.262 25.1101 25.1034 24.9118 24.9844 24.6738C24.7068 24.1979 23.5169 22.2544 22.0097 19.7953C21.5337 19.0417 21.0578 18.2485 20.5422 17.4155C20.2249 16.8999 19.8679 16.3446 19.5506 15.7894C19.0746 14.9961 18.5987 14.2028 18.1227 13.4493C17.7658 12.8543 17.4088 12.2594 17.0915 11.7438C15.7033 9.44331 14.6324 7.65848 14.4737 7.30152C14.2358 6.74624 14.0771 6.19096 14.0375 5.63568C13.9978 5.15972 14.0771 4.68377 14.2358 4.20781C14.3151 3.93017 14.4737 3.65253 14.6324 3.41456C14.6721 3.3749 14.6721 3.33523 14.7117 3.29557C15.0687 2.77995 15.505 2.304 16.0603 2.02636C16.6552 1.70906 17.3295 1.51074 17.9641 1.51074C18.0831 1.51074 18.2417 1.51074 18.3607 1.55041H18.44C18.559 1.55041 18.6383 1.59007 18.7573 1.59007C18.8367 1.59007 18.916 1.62973 18.9953 1.66939C19.9472 1.94703 20.7405 2.54198 21.2957 3.41456L21.8907 4.40613L30.8148 18.8434L32.0047 20.7472C32.084 20.7076 32.1634 20.6282 32.2427 20.5489C32.9566 20.0333 33.7499 19.24 34.0275 18.0501C35.3364 20.3109 34.0672 22.9683 32.798 24.8721Z" fill="#F7F7F7"/>
<path d="M18.7552 24.872C17.8826 26.1412 16.4151 27.2121 14.9079 27.3311C13.361 27.4898 12.3695 26.8948 11.3382 25.3083C11.2193 25.11 11.0606 24.9117 10.9416 24.6737C10.664 24.1977 9.47409 22.2543 7.9669 19.7952C7.49095 19.0416 7.015 18.2483 6.49938 17.4154C6.18208 16.8998 5.86477 16.3445 5.50781 15.7892C5.42055 15.6464 5.33726 15.5037 5.25 15.3767C5.45228 14.635 5.71802 13.8616 6.13052 13.2072C6.46368 12.6836 6.89997 12.2275 7.39973 11.8586C7.9669 11.4422 8.62134 11.1407 9.31147 10.994C10.0056 10.8472 10.6774 10.9109 11.3802 11.0476C11.5151 11.0738 11.5138 11.0763 11.6566 11.1041L12.0323 11.1883L16.7324 18.76L17.9223 20.6638C18.0016 20.6241 18.0809 20.5448 18.1999 20.5051C18.9138 19.9895 19.7071 19.1963 19.9847 18.046C21.2936 20.3068 20.0244 22.9642 18.7552 24.868V24.872Z" fill="#F7F7F7"/>
<path d="M11.3436 9.8399C10.9469 9.76057 10.59 9.72091 10.233 9.72091C10.233 9.72091 9.87605 9.72091 9.51908 9.76057C7.15914 10.0422 5.59246 11.9024 5.59246 11.9024C5.26326 12.295 4.76747 12.9852 4.44224 14.0045C3.76797 12.8939 3.0937 11.7834 2.41943 10.6728C1.74516 9.52259 0.951908 8.41203 0.436291 7.18249C0.198314 6.62721 0.0396628 6.07193 0 5.51665V5.00103C0 4.68373 0.0793257 4.40609 0.198314 4.08879C0.436291 3.41452 0.793257 2.85924 1.30887 2.38328C1.34854 2.34362 1.3882 2.30396 1.46752 2.2643C1.62618 2.10564 1.82449 1.98666 2.0228 1.86767C2.61775 1.55036 3.29201 1.35205 3.96628 1.35205C4.20426 1.35205 4.44224 1.39171 4.68021 1.43138C5.19583 1.5107 5.71145 1.74868 6.14774 2.02632C6.58403 2.34362 6.98066 2.70059 7.2583 3.17654C7.28474 3.20298 7.29796 3.22942 7.29796 3.25587L11.3436 9.8399Z" fill="#F7F7F7"/>
<path d="M43.0342 5.23905L36.6882 15.5117C36.0139 16.5826 34.7844 16.8999 33.7531 16.5033C33.3565 16.3446 32.9995 16.1067 32.7219 15.7497C32.6822 15.6704 32.6029 15.591 32.5632 15.5117L26.2172 5.23905C25.7412 4.44579 25.7412 3.57321 26.0982 2.85928C26.4948 2.06602 27.2881 1.51074 28.2797 1.51074H40.9718C41.3287 1.51074 41.646 1.59007 41.9633 1.70906C43.2325 2.26434 43.8671 3.89051 43.0342 5.23905Z" fill="#F7F7F7"/>
</g>
<path d="M87.7912 27.6561C86.1543 27.6561 84.7045 27.3798 83.4418 26.8273C82.179 26.2748 81.115 25.5266 80.2498 24.5827C79.3846 23.6388 78.7181 22.5798 78.2504 21.4057C77.8061 20.2316 77.584 19.023 77.584 17.7798V17.0892C77.584 15.8 77.8061 14.5683 78.2504 13.3942C78.7181 12.1971 79.3729 11.1381 80.2147 10.2172C81.0799 9.29635 82.1322 8.57117 83.3716 8.04167C84.611 7.48915 86.014 7.21289 87.5808 7.21289C89.662 7.21289 91.4275 7.67332 92.8773 8.59419C94.3272 9.51505 95.4379 10.7352 96.2096 12.2546C96.9813 13.751 97.3671 15.3856 97.3671 17.1582V19.1611H80.2498V15.7769H93.6841L91.4743 17.2964C91.4743 16.2143 91.3223 15.305 91.0183 14.5683C90.7377 13.8086 90.3051 13.233 89.7205 12.8417C89.1592 12.4503 88.446 12.2546 87.5808 12.2546C86.7389 12.2546 86.0023 12.4503 85.371 12.8417C84.763 13.21 84.2953 13.7856 83.9679 14.5683C83.6405 15.328 83.4768 16.2949 83.4768 17.469C83.4768 18.528 83.6288 19.4489 83.9328 20.2316C84.2368 20.9913 84.7045 21.5784 85.3359 21.9928C85.9673 22.4072 86.7857 22.6144 87.7912 22.6144C88.6798 22.6144 89.4048 22.4647 89.966 22.1654C90.5506 21.8662 90.9598 21.4633 91.1937 20.9568H97.0164C96.7358 22.246 96.1745 23.3971 95.3327 24.41C94.5142 25.423 93.4619 26.2172 92.1758 26.7928C90.9131 27.3683 89.4515 27.6561 87.7912 27.6561Z" fill="#F7F7F7"/>
<path d="M62.7607 16.7866L69.3906 7.90283H76.0547L69.9395 16.0366L77.248 26.9644H70.127L64.4102 18.0552H62.7607V26.9644H56.377V1.75537H62.7607V16.7866Z" fill="#F7F7F7"/>
<path d="M117.027 11.0186L113.781 17.2148L119.712 26.9678H112.837L109.049 20.3037H108.487L104.979 26.9678H98.5254L103.923 17.2529L98.7012 7.90625H105.576L108.697 14.1562H109.259L112.205 7.90625H116.923L116.924 7.90332H119.999L117.027 11.0186Z" fill="#F7F7F7"/>
<path d="M52.1035 8.77197V26.9653H46.0098V14.5542H46.0146V10.1685L44.0078 8.77197H52.1035ZM48.4873 1.32275C49.6032 1.32275 50.4183 1.60889 50.9316 2.18018C51.4447 2.7294 51.7011 3.44316 51.7012 4.32178C51.7012 5.20069 51.445 5.92627 50.9316 6.49756C50.4184 7.04677 49.6149 7.32171 48.5215 7.32178C47.4057 7.32178 46.5796 7.04672 46.0439 6.49756C45.5306 5.92627 45.2734 5.20069 45.2734 4.32178C45.2735 3.44306 45.5307 2.72942 46.0439 2.18018C46.5795 1.60894 47.3938 1.32281 48.4873 1.32275Z" fill="#F7F7F7"/>
<ellipse cx="48.5171" cy="4.31236" rx="3.31197" ry="3.2606" fill="#F7F7F7"/>
<defs>
<clipPath id="clip0_6104_7948">
<rect width="43.411" height="26.003" fill="white" transform="translate(0 1.35205)"/>
</clipPath>
</defs>
</svg>
